<svg width="50" height="50" viewBox="0 0 50 50" fill="none" xmlns="http://www.w3.org/2000/svg">
<path d="M24.6354 0C25.5847 0 26.3542 0.769511 26.3542 1.71875V4.01042C26.3542 4.95966 25.5847 5.72917 24.6354 5.72917C23.6862 5.72917 22.9167 4.95966 22.9167 4.01042V1.71875C22.9167 0.769511 23.6862 0 24.6354 0Z" fill="black"/>
<path fill-rule="evenodd" clip-rule="evenodd" d="M11.4583 24.6354C11.4583 17.3579 17.3579 11.4583 24.6354 11.4583C31.9129 11.4583 37.8125 17.3579 37.8125 24.6354C37.8125 31.9129 31.9129 37.8125 24.6354 37.8125C17.3579 37.8125 11.4583 31.9129 11.4583 24.6354ZM24.6354 14.8958C19.2564 14.8958 14.8958 19.2564 14.8958 24.6354C14.8958 30.0144 19.2564 34.375 24.6354 34.375C30.0144 34.375 34.375 30.0144 34.375 24.6354C34.375 19.2564 30.0144 14.8958 24.6354 14.8958Z" fill="black"/>
<path d="M9.64626 7.2156C8.97504 6.54438 7.88679 6.54438 7.21558 7.2156C6.54436 7.88681 6.54436 8.97506 7.21558 9.64628L8.83603 11.2667C9.50725 11.9379 10.5955 11.9379 11.2667 11.2667C11.9379 10.5955 11.9379 9.50727 11.2667 8.83605L9.64626 7.2156Z" fill="black"/>
<path d="M49.2708 24.6354C49.2708 25.5847 48.5013 26.3542 47.5521 26.3542H45.2604C44.3112 26.3542 43.5417 25.5847 43.5417 24.6354C43.5417 23.6862 44.3112 22.9167 45.2604 22.9167H47.5521C48.5013 22.9167 49.2708 23.6862 49.2708 24.6354Z" fill="black"/>
<path d="M42.0552 9.64626C42.7264 8.97504 42.7264 7.88679 42.0552 7.21558C41.384 6.54436 40.2958 6.54436 39.6245 7.21558L38.0041 8.83603C37.3329 9.50725 37.3329 10.5955 38.0041 11.2667C38.6753 11.9379 39.7636 11.9379 40.4348 11.2667L42.0552 9.64626Z" fill="black"/>
<path d="M24.6354 43.5417C25.5847 43.5417 26.3542 44.3112 26.3542 45.2604V47.5521C26.3542 48.5013 25.5847 49.2708 24.6354 49.2708C23.6862 49.2708 22.9167 48.5013 22.9167 47.5521V45.2604C22.9167 44.3112 23.6862 43.5417 24.6354 43.5417Z" fill="black"/>
<path d="M40.4349 38.0041C39.7637 37.3329 38.6755 37.3329 38.0043 38.0041C37.333 38.6753 37.333 39.7636 38.0043 40.4348L39.6247 42.0553C40.2959 42.7265 41.3842 42.7265 42.0554 42.0553C42.7266 41.3841 42.7266 40.2958 42.0554 39.6246L40.4349 38.0041Z" fill="black"/>
<path d="M5.72917 24.6354C5.72917 25.5847 4.95966 26.3542 4.01042 26.3542H1.71875C0.76951 26.3542 0 25.5847 0 24.6354C0 23.6862 0.769511 22.9167 1.71875 22.9167H4.01042C4.95966 22.9167 5.72917 23.6862 5.72917 24.6354Z" fill="black"/>
<path d="M11.2666 40.4348C11.9378 39.7636 11.9378 38.6753 11.2666 38.0041C10.5953 37.3329 9.50709 37.3329 8.83588 38.0041L7.21543 39.6246C6.54421 40.2958 6.54421 41.384 7.21543 42.0552C7.88664 42.7265 8.97489 42.7265 9.6461 42.0552L11.2666 40.4348Z" fill="black"/>
</svg>
